<svg xmlns="http://www.w3.org/2000/svg" viewBox="0 0 1364.7 766.27"><defs><style>.cls-1{fill:#108357;}</style></defs><title>Ativo 2</title><g id="Camada_2" data-name="Camada 2"><g id="Camada_1-2" data-name="Camada 1"><path class="cls-1" d="M42.84,754.8c-22.2-23.71-30.27-52.75-38.79-83.49-1.31-4.78-2.62-9.61-4-14.39H0v73.36a151.58,151.58,0,0,0,22.07,36H55.36A110.13,110.13,0,0,1,42.84,754.8Z"/><path class="cls-1" d="M166.57,745.51c-28.55-8.85-55.53-17.24-77.73-41s-30.27-52.75-38.79-83.49c-8.95-32.28-18.19-65.69-44.47-93.75-1.8-1.93-3.67-3.8-5.58-5.61V557c14.8,21.1,21.58,45.45,28.64,71,9,32.28,18.2,65.69,44.47,93.76,24,25.62,52,35.86,79.46,44.53H220C202.62,756.69,184.41,751.05,166.57,745.51Z"/><path class="cls-1" d="M299.87,742.3c-26.28-28.07-57.31-37.67-87.3-47-28.55-8.85-55.53-17.24-77.73-41s-30.27-52.76-38.79-83.49c-9-32.28-18.19-65.69-44.47-93.75C34.66,459.05,15.89,449,0,442.42v26.13A118.25,118.25,0,0,1,35.86,494.3c22.2,23.71,30.27,52.76,38.78,83.49,9,32.28,18.2,65.69,44.47,93.75s57.31,37.68,87.3,47c28.55,8.85,55.53,17.25,77.73,41q3.12,3.32,5.87,6.79h27.85A139.37,139.37,0,0,0,299.87,742.3Z"/><path class="cls-1" d="M345.87,692c-26.28-28.06-57.31-37.67-87.3-47-28.55-8.85-55.53-17.25-77.73-41s-30.27-52.75-38.79-83.49c-9-32.28-18.19-65.69-44.47-93.75s-57.31-37.67-87.29-47c-3.44-1.06-6.87-2.12-10.29-3.21v25.15l4.08,1.26c28.55,8.85,55.53,17.25,77.73,41s30.27,52.75,38.79,83.49c9,32.28,18.19,65.69,44.47,93.75s57.31,37.67,87.29,47c28.55,8.85,55.53,17.24,77.73,40.95,15.72,16.79,24.35,36.25,31.08,57.09h23.61C377,740.3,366.88,714.44,345.87,692Z"/><path class="cls-1" d="M436.34,735.51c-8.95-32.28-18.2-65.69-44.47-93.75s-57.31-37.67-87.3-47C276,585.93,249,577.54,226.84,553.83s-30.27-52.75-38.79-83.49c-9-32.28-18.19-65.69-44.46-93.75s-57.32-37.67-87.3-47c-20-6.21-39-12.12-56.29-23.18v27.35c16.42,8.56,33.48,13.87,50.13,19,28.55,8.85,55.53,17.25,77.73,41s30.27,52.75,38.79,83.48c8.95,32.28,18.19,65.69,44.46,93.76s57.32,37.67,87.3,47c28.55,8.85,55.53,17.25,77.73,41s30.27,52.75,38.79,83.49c2.19,7.91,4.4,15.88,6.88,23.84h23.68C442.1,756.31,439.24,746,436.34,735.51Z"/><path class="cls-1" d="M482.34,685.27c-8.95-32.28-18.19-65.69-44.47-93.75s-57.31-37.68-87.3-47C322,535.69,295,527.3,272.84,503.59s-30.27-52.76-38.78-83.49c-8.95-32.28-18.2-65.69-44.47-93.76s-57.32-37.67-87.3-47c-28.55-8.85-55.53-17.25-77.73-41-10-10.7-17.92-23.3-24.56-39.2v45.93a135.78,135.78,0,0,0,8.83,10.45c26.28,28.07,57.31,37.67,87.3,47,28.55,8.85,55.53,17.24,77.73,40.95s30.27,52.75,38.79,83.49c8.95,32.28,18.19,65.69,44.47,93.75s57.31,37.68,87.29,47c28.55,8.85,55.53,17.24,77.73,41s30.28,52.75,38.79,83.48c6.94,25,14.06,50.72,29.14,74.09h28.8C498.37,743,490.56,714.94,482.34,685.27Z"/><path class="cls-1" d="M644.81,759.42c-28.55-8.85-55.53-17.25-77.73-41S536.8,665.71,528.29,635c-8.95-32.27-18.19-65.68-44.47-93.75s-57.31-37.67-87.29-47C368,485.4,341,477,318.8,453.29S288.52,400.54,280,369.8c-8.95-32.28-18.19-65.69-44.47-93.75s-57.31-37.67-87.3-47c-28.55-8.85-55.53-17.24-77.73-40.95s-30.27-52.75-38.78-83.49C24.43,78.3,16.89,51.13,0,26.7V77.2c4,11.12,7.18,22.7,10.46,34.55,9,32.28,18.19,65.69,44.47,93.75s57.31,37.67,87.3,47c28.55,8.85,55.52,17.24,77.72,41s30.28,52.76,38.79,83.49c8.95,32.28,18.2,65.69,44.47,93.75s57.31,37.68,87.3,47c28.55,8.85,55.53,17.25,77.73,41s30.27,52.75,38.78,83.48c9,32.28,18.2,65.69,44.47,93.76a138.23,138.23,0,0,0,42,30.42H666C659,763.81,651.85,761.6,644.81,759.42Z"/><path class="cls-1" d="M778.1,756.15c-26.27-28.06-57.31-37.67-87.29-47-28.55-8.85-55.53-17.24-77.73-40.95s-30.28-52.75-38.79-83.49C565.34,552.45,556.1,519,529.82,491s-57.31-37.67-87.29-47C414,435.15,387,426.76,364.8,403.05S334.52,350.3,326,319.56c-8.95-32.28-18.19-65.69-44.47-93.75s-57.31-37.67-87.3-47c-28.55-8.85-55.53-17.24-77.73-41S86.24,85.12,77.73,54.39C72.69,36.24,67.55,17.74,59.36,0L33.8,0C44.51,18.74,50.3,39.59,56.32,61.3c8.95,32.28,18.19,65.69,44.47,93.75s57.31,37.68,87.29,47c28.55,8.85,55.53,17.24,77.73,41s30.28,52.75,38.79,83.48c8.95,32.28,18.19,65.69,44.47,93.76s57.31,37.67,87.29,47c28.56,8.85,55.53,17.25,77.73,41s30.28,52.75,38.79,83.49c9,32.27,18.19,65.68,44.47,93.75s57.31,37.67,87.3,47c25.51,7.91,49.76,15.47,70.47,33.9h31.57C784,762.83,781.19,759.45,778.1,756.15Z"/><path class="cls-1" d="M824.1,705.86c-26.27-28.07-57.31-37.68-87.29-47-28.55-8.85-55.53-17.24-77.73-41s-30.28-52.75-38.79-83.48c-8.95-32.28-18.19-65.69-44.47-93.76s-57.31-37.67-87.29-47c-28.56-8.85-55.53-17.25-77.73-41S380.52,300,372,269.26c-8.95-32.27-18.19-65.68-44.47-93.75s-57.31-37.67-87.3-47c-28.55-8.85-55.53-17.25-77.73-41S132.24,34.83,123.73,4.09c-.37-1.33-.75-2.66-1.12-4L99.4.07q1.57,5.51,3.11,11.09c8.95,32.28,18.19,65.69,44.47,93.75s57.31,37.67,87.29,47c28.56,8.85,55.53,17.24,77.73,41s30.28,52.76,38.79,83.49c8.95,32.28,18.19,65.69,44.47,93.76s57.31,37.67,87.3,47c28.55,8.85,55.52,17.25,77.73,41s30.27,52.75,38.78,83.48c8.95,32.28,18.2,65.69,44.47,93.76s57.31,37.67,87.3,47c28.55,8.85,55.53,17.25,77.73,41,12.14,13,20,27.52,26.12,43.08h23.9C851.28,745.05,841.37,724.3,824.1,705.86Z"/><path class="cls-1" d="M914.57,749.37c-9-32.28-18.19-65.69-44.46-93.76s-57.32-37.67-87.3-47c-28.55-8.85-55.53-17.25-77.73-41s-30.28-52.75-38.79-83.49c-8.95-32.28-18.19-65.69-44.47-93.75s-57.31-37.67-87.29-47C506,334.62,479,326.22,456.8,302.51S426.52,249.76,418,219c-8.95-32.28-18.19-65.69-44.47-93.75s-57.31-37.67-87.3-47c-28.55-8.85-55.52-17.24-77.73-40.95C197.93,26,190.56,13.5,184.82.16l-24.2,0C167.73,19.32,177.34,38,193,54.72c26.27,28.07,57.31,37.67,87.29,47,28.55,8.85,55.53,17.24,77.73,41s30.28,52.75,38.79,83.49c9,32.28,18.19,65.69,44.47,93.75s57.31,37.67,87.29,47c28.56,8.85,55.53,17.24,77.73,40.95s30.28,52.76,38.79,83.49c9,32.28,18.19,65.69,44.47,93.76s57.31,37.67,87.3,47c28.55,8.85,55.53,17.25,77.73,41s30.27,52.75,38.78,83.48c.91,3.26,1.81,6.52,2.74,9.79h23.22C917.72,760.71,916.15,755.06,914.57,749.37Z"/><path class="cls-1" d="M960.58,699.12c-9-32.28-18.2-65.69-44.47-93.75s-57.32-37.67-87.3-47c-28.55-8.85-55.53-17.24-77.73-40.95S720.81,464.69,712.29,434c-8.95-32.28-18.19-65.69-44.47-93.75s-57.31-37.67-87.29-47C552,284.37,525,276,502.8,252.27S472.52,199.52,464,168.78c-8.95-32.28-18.19-65.69-44.47-93.75s-57.31-37.68-87.3-47c-22.5-7-44-13.67-63-27.8l-34.05,0q1.77,2.06,3.64,4.06c26.28,28.07,57.32,37.67,87.3,47,28.55,8.85,55.53,17.24,77.73,41s30.28,52.76,38.79,83.49c9,32.28,18.19,65.69,44.47,93.76s57.31,37.67,87.29,47c28.56,8.85,55.53,17.25,77.73,41s30.28,52.75,38.79,83.48c9,32.28,18.19,65.69,44.47,93.76s57.31,37.67,87.3,47c28.55,8.85,55.52,17.25,77.73,41S930.7,675.3,939.21,706c5.59,20.16,11.3,40.76,21.2,60.23h26.22C973.6,746.07,967.22,723.11,960.58,699.12Z"/><path class="cls-1" d="M1045.36,732.37c-22.2-23.71-30.27-52.75-38.78-83.49-9-32.28-18.2-65.69-44.47-93.75s-57.31-37.68-87.3-47c-28.55-8.85-55.53-17.24-77.73-40.95s-30.27-52.76-38.79-83.49C749.34,351.43,740.1,318,713.82,290s-57.31-37.67-87.29-47C598,234.13,571,225.73,548.8,202S518.52,149.27,510,118.53c-8.95-32.27-18.19-65.68-44.47-93.75A133.9,133.9,0,0,0,434.94.43L369.41.36l2.91.9c28.56,8.85,55.53,17.25,77.73,41S480.33,95,488.84,125.71c9,32.27,18.19,65.68,44.47,93.75s57.31,37.67,87.3,47c28.55,8.85,55.52,17.25,77.73,41s30.27,52.75,38.78,83.49c9,32.28,18.2,65.69,44.47,93.75s57.31,37.67,87.3,47c28.55,8.85,55.53,17.24,77.73,40.95s30.27,52.75,38.79,83.49c9,32.28,18.19,65.69,44.47,93.75a133.32,133.32,0,0,0,18.56,16.47h52.85C1080.9,759.1,1061.82,749.94,1045.36,732.37Z"/><path class="cls-1" d="M1169.29,723.28c-28.56-8.85-55.53-17.24-77.73-40.95s-30.28-52.75-38.94-83.69c-8.95-32.28-18.19-65.69-44.47-93.76s-57.31-37.67-87.29-47c-28.55-8.85-55.53-17.25-77.73-41s-30.28-52.75-38.79-83.49c-9-32.28-18.19-65.69-44.47-93.75s-57.31-37.67-87.29-47c-28.56-8.84-55.53-17.24-77.73-40.95S564.57,99,556.06,68.29C549.74,45.51,543.27,22.16,530.77.53L503.26.5c16.84,22,24,47.79,31.53,74.91,9,32.28,18.2,65.69,44.47,93.75s57.31,37.68,87.3,47c28.55,8.85,55.53,17.24,77.73,41s30.27,52.75,38.79,83.48c8.95,32.28,18.19,65.69,44.47,93.76s57.31,37.67,87.29,47c28.55,8.85,55.53,17.25,77.73,41s30.28,52.75,38.79,83.49c9,32.27,18.19,65.68,44.47,93.75s57.31,37.67,87.29,47c17.76,5.51,34.91,10.84,50.68,19.79h38.87C1227.25,741.27,1197.8,732.13,1169.29,723.28Z"/><path class="cls-1" d="M1302.58,720c-26.27-28.07-57.26-37.67-87.49-47.18-28.55-8.85-55.52-17.25-77.73-41s-30.27-52.75-38.78-83.49c-8.95-32.28-18.2-65.69-44.47-93.75s-57.31-37.67-87.3-47c-28.55-8.85-55.53-17.24-77.73-41S858.81,314,850.29,283.22c-8.95-32.28-18.19-65.69-44.47-93.75s-57.31-37.67-87.29-47C690,133.64,663,125.25,640.8,101.54S610.52,48.79,602,18.05c-1.6-5.79-3.23-11.62-5-17.45l-23.37,0c2.55,8,4.83,16.28,7.15,24.65C589.79,57.5,599,90.91,625.31,119s57.31,37.67,87.3,47c28.55,8.85,55.53,17.24,77.73,41s30.27,52.75,38.78,83.49c9,32.28,18.2,65.69,44.47,93.75s57.31,37.68,87.3,47c28.55,8.85,55.53,17.24,77.73,41s30.27,52.75,38.79,83.48c8.95,32.28,18.19,65.69,44.47,93.76s57.31,37.67,87.29,47c28.55,8.85,55.53,17.25,77.73,41a120.79,120.79,0,0,1,19.93,29h24.9C1325,750,1316,734.33,1302.58,720Z"/><path class="cls-1" d="M1354.62,676.69q-2.92-3.59-6.18-7.07c-26.28-28.06-57.31-37.67-87.3-47-28.55-8.85-55.53-17.24-77.73-40.95s-30.27-52.75-38.78-83.49c-9-32.28-18.2-65.69-44.47-93.75s-57.32-37.67-87.3-47c-28.55-8.85-55.53-17.24-77.73-41S904.86,263.77,896.34,233c-9-32.28-18.19-65.69-44.47-93.75s-57.31-37.68-87.29-47C736,83.45,709.05,75.06,686.85,51.35,672.75,36.29,664.36,19.08,657.93.66l-23.62,0c7.56,23.85,17.67,47.39,37,68,26.28,28.06,57.31,37.67,87.3,47,28.55,8.85,55.53,17.25,77.73,41s30.27,52.75,38.78,83.49c9,32.28,18.2,65.69,44.47,93.75s57.32,37.67,87.3,47c28.55,8.84,55.53,17.24,77.73,40.95s30.27,52.75,38.79,83.49c8.95,32.28,18.19,65.69,44.47,93.75s57.31,37.67,87.29,47c28.55,8.85,55.53,17.24,77.73,41,14.78,15.79,23.28,33.94,29.78,53.34l.15-52.44Q1359.07,682.17,1354.62,676.69Z"/><path class="cls-1" d="M1307.14,572.35c-28.55-8.85-55.53-17.24-77.73-41s-30.27-52.75-38.78-83.48c-9-32.28-18.2-65.69-44.47-93.76s-57.31-37.67-87.3-47c-28.55-8.85-55.53-17.25-77.73-41s-30.27-52.75-38.79-83.49c-9-32.27-18.19-65.68-44.47-93.75s-57.31-37.67-87.29-47c-28.55-8.85-55.53-17.25-77.73-41-.1-.1-.18-.21-.28-.31l-29.34,0a138.16,138.16,0,0,0,13.89,17.52c26.28,28.06,57.31,37.67,87.3,47,28.55,8.84,55.52,17.24,77.73,41s30.27,52.75,38.78,83.49c9,32.28,18.2,65.69,44.47,93.75s57.31,37.67,87.3,47c28.55,8.85,55.53,17.24,77.73,40.95s30.27,52.75,38.79,83.49c9,32.28,18.19,65.69,44.47,93.75s57.31,37.67,87.29,47c22.12,6.85,43.28,13.43,62,27.07l.08-28C1345,584.12,1325.87,578.16,1307.14,572.35Z"/><path class="cls-1" d="M1353.19,522.16c-28.55-8.85-55.53-17.25-77.73-41s-30.27-52.75-38.79-83.49c-9-32.27-18.19-65.68-44.47-93.75s-57.31-37.67-87.29-47c-28.55-8.85-55.53-17.25-77.73-41s-30.28-52.75-38.79-83.49c-8.95-32.28-18.19-65.69-44.47-93.75C925.64,19.26,905.05,8.67,884.11.9L810.23.82c13.26,5.88,26.83,10.1,40.19,14.25C879,23.91,906,32.31,928.15,56s30.27,52.75,38.78,83.49c9,32.28,18.2,65.69,44.47,93.75s57.32,37.67,87.3,47c28.55,8.85,55.53,17.24,77.73,40.95s30.27,52.75,38.79,83.49c9,32.28,18.19,65.69,44.47,93.75s57.31,37.67,87.29,47c5.55,1.7,10.93,3.38,16.23,5.13l.07-25.21Q1358.2,523.71,1353.19,522.16Z"/><path class="cls-1" d="M1321.42,431c-22.21-23.71-30.28-52.75-38.79-83.49-9-32.28-18.2-65.69-44.47-93.75s-57.31-37.67-87.3-47c-28.55-8.85-55.53-17.24-77.73-41S1042.86,113,1034.34,82.3c-7.65-27.62-15.53-56.06-34.1-81.28L969.42,1c1.6,1.51,3.18,3.08,4.73,4.74,22.2,23.71,30.27,52.75,38.78,83.48,9,32.28,18.2,65.69,44.47,93.76s57.32,37.67,87.3,47c28.55,8.85,55.53,17.25,77.73,41s30.27,52.75,38.79,83.49c9,32.27,18.19,65.68,44.47,93.75,17.89,19.07,38.28,29.68,57.7,37.1l.07-25.73C1348.71,453.21,1334.24,444.66,1321.42,431Z"/><path class="cls-1" d="M1328.63,297.23c-9-32.28-18.2-65.69-44.47-93.75s-57.31-37.68-87.3-47c-28.55-8.85-55.53-17.24-77.73-41s-30.27-52.75-38.78-83.48c-2.85-10.28-5.75-20.67-9.2-31l-23.92,0c4.56,12.15,8.1,24.87,11.71,37.9,9,32.28,18.19,65.69,44.46,93.75s57.32,37.67,87.3,47c28.55,8.85,55.53,17.24,77.73,41s30.28,52.76,38.79,83.49c9,32.28,18.19,65.69,44.47,93.76a131.2,131.2,0,0,0,11.91,11.23l.09-32.6C1344.28,353.63,1336.65,326.18,1328.63,297.23Z"/><path class="cls-1" d="M1330.16,153.23c-26.28-28.06-57.31-37.67-87.3-47-28.55-8.85-55.53-17.25-77.73-41-17.47-18.66-26.2-40.64-33.27-64.14l-23.44,0c8.11,28.31,18.07,56.86,41,81.34,26.27,28.06,57.31,37.67,87.29,47,28.55,8.85,55.53,17.24,77.73,40.95s30.28,52.75,38.79,83.49c3.23,11.67,6.55,23.6,10.72,35.38l.21-77C1356.89,191.51,1347,171.27,1330.16,153.23Z"/><path class="cls-1" d="M1288.91,56c-28.55-8.85-55.53-17.24-77.73-40.95a115.07,115.07,0,0,1-11-13.82l-26.63,0a142.66,142.66,0,0,0,21.94,31c26.28,28.06,57.31,37.67,87.3,47,28.55,8.85,55.53,17.25,77.73,41q2,2.17,3.91,4.44l.1-32.66C1341,72.15,1314.55,64,1288.91,56Z"/><path class="cls-1" d="M1335,5.82c-4.75-1.47-9.46-2.93-14.11-4.46l-56.77-.06c20.66,14,43,21,64.77,27.72,12.41,3.87,24.34,7.58,35.78,12.48l.07-25.73C1354.76,12,1344.76,8.86,1335,5.82Z"/></g></g></svg>