<svg xmlns="http://www.w3.org/2000/svg" viewBox="0 0 26.4 26.4"><defs><style>.cls-1{fill:#511845;}.cls-2{fill:#ff5733;}.cls-3{fill:none;stroke:#ff5733;stroke-miterlimit:10;stroke-width:0.75px;}</style></defs><title>Ativo 1</title><g id="Camada_2" data-name="Camada 2"><g id="Camada_1-2" data-name="Camada 1"><circle class="cls-1" cx="13.2" cy="13.2" r="13.2"/><g id="Camada_1-2-2" data-name="Camada 1-2"><path class="cls-2" d="M20.34,19.73a1.56,1.56,0,0,1-3.11,0h0V16.62H9.45v3.11a1.56,1.56,0,0,1-3.12,0h0v-7a7,7,0,0,1,14,0ZM9.45,13.5h7.78v-.76a3.89,3.89,0,1,0-7.78,0Z"/><line class="cls-3" x1="17.8" y1="8.08" x2="19.91" y2="6.12"/><circle class="cls-2" cx="20.1" cy="5.91" r="1.02"/><line class="cls-3" x1="13.78" y1="6.9" x2="13.76" y2="3.9"/><circle class="cls-2" cx="13.75" cy="3.61" r="1.02"/><line class="cls-3" x1="9.18" y1="8.04" x2="7.07" y2="6.08"/><circle class="cls-2" cx="6.88" cy="5.86" r="1.02"/></g></g></g></svg>