<svg xmlns="http://www.w3.org/2000/svg" viewBox="0 0 133.3 239.73"><defs><style>.cls-1{fill:#00c36a;}.cls-2{fill:#fdfefe;}</style></defs><title>point</title><g id="Camada_2" data-name="Camada 2"><g id="Camada_1-2" data-name="Camada 1"><path class="cls-1" d="M64.68,239.73c-16.07-25.3-32.7-50.28-45.21-77.66C10.67,142.82,3.15,123.24.51,102-1.32,87.24,1.84,73.77,9,61.05,22.13,37.73,40.94,19.19,60.12,1c1-.92,3-.71,4.52-1C64,10.51,63,21,62.61,31.53c-.45,11.74,4.83,19.06,16.81,21.62a205.42,205.42,0,0,1,26.94,7.56c23.54,8.51,30.21,20.73,25.55,45.12-3.62,18.92-11,36.53-19,53.85C101.58,184,88.25,207.26,74.27,230.15c-1.84,3-5,5.48-4.69,9.58Z"/><path class="cls-2" d="M96.67,109A31.09,31.09,0,1,1,65.5,78.2,31.32,31.32,0,0,1,96.67,109Z"/></g></g></svg>